# xmcd
#
# Track frame offsets: 
#        150
#        17757
#        36072
#        52747
#        68775
#        92740
#        116045
#        130290
#        147735
#        153962
#        171500
#
# Disc length: 2564 seconds
#
# Revision: 3
# Processed by: cddbd v1.5.2PL0 Copyright (c) Steve Scherf et al.
# Submitted via: ExactAudioCopy v0.99pb4
#
DISCID=970a020b
DTITLE=Shahin and Sepehr - Nostalgia
DYEAR=2002
DGENRE=Acoustic guitar
TTITLE0=Midnight in Madrid
TTITLE1=Norooz
TTITLE2=Nostalgia
TTITLE3=No Souvenirs
TTITLE4=Ferdowsi in Love
TTITLE5=The Journey Back
TTITLE6=Good Night Moon
TTITLE7=Pictures of Lily
TTITLE8=Danube
TTITLE9=Fellow Travelers
TTITLE10=Echoes of Persia
EXTD=YEAR: 2002
EXTT0=
EXTT1=
EXTT2=
EXTT3=
EXTT4=
EXTT5=
EXTT6=
EXTT7=
EXTT8=
EXTT9=
EXTT10=
PLAYORDER=
